<svg width="70" height="74" viewBox="0 0 70 74" fill="none" xmlns="http://www.w3.org/2000/svg">
<path d="M29.4495 44.5129H36.7781V18.8627H29.4495V44.5129ZM40.4424 39.0164H47.771V22.527H40.4424V39.0164ZM18.4565 37.1843H25.7852V22.527H18.4565V37.1843ZM11.1279 73.8274V58.0709C7.64682 54.8951 4.945 51.1856 3.02246 46.9423C1.09992 42.6991 0.137422 38.2249 0.134979 33.52C0.134979 24.3592 3.34125 16.5725 9.7538 10.16C16.1663 3.74741 23.953 0.541138 33.1138 0.541138C40.7478 0.541138 47.5121 2.78614 53.4068 7.27614C59.3014 11.7661 63.1331 17.6132 64.9017 24.8172L69.6653 43.5968C69.9707 44.7572 69.7569 45.8113 69.0241 46.7591C68.2912 47.707 67.314 48.1796 66.0926 48.1772H58.764V59.1701C58.764 61.1855 58.047 62.9114 56.613 64.3478C55.1791 65.7842 53.4532 66.5012 51.4354 66.4988H44.1067V73.8274H36.7781V59.1701H51.4354V40.8486H61.329L57.8479 26.6494C56.4432 21.0918 53.4507 16.5725 48.8703 13.0914C44.2899 9.61031 39.0378 7.86976 33.1138 7.86976C26.0295 7.86976 19.9833 10.3432 14.9754 15.29C9.96755 20.2368 7.4636 26.2524 7.4636 33.3367C7.4636 37.001 8.21235 40.4821 9.70983 43.78C11.2073 47.0779 13.3289 50.0094 16.0747 52.5744L18.4565 54.773V73.8274H11.1279Z" fill="#3159A5"/>
</svg>
