<svg width="75" height="64" viewBox="0 0 75 64" fill="none" xmlns="http://www.w3.org/2000/svg">
<path d="M55.8936 0.869751C60.7528 0.869751 65.413 2.80005 68.8489 6.23601C72.2849 9.67197 74.2152 14.3321 74.2152 19.1913C74.2152 24.2481 72.1632 28.8285 68.8653 32.163L37.5721 63.4196L6.27885 32.163C2.98097 28.8285 0.928955 24.2481 0.928955 19.1913C0.928955 14.3321 2.85926 9.67197 6.29522 6.23601C9.73118 2.80005 14.3913 0.869751 19.2505 0.869751C24.3073 0.869751 28.8877 2.92177 32.2222 6.21965L37.5721 11.6062L42.922 6.21965C46.2565 2.92177 50.8369 0.869751 55.8936 0.869751ZM50.727 14.0246L27.2021 37.5129L37.5721 47.8829L61.0603 24.358C62.4161 23.0388 63.2223 21.2067 63.2223 19.1913C63.2223 17.2476 62.4501 15.3836 61.0758 14.0092C59.7014 12.6348 57.8373 11.8627 55.8936 11.8627C53.8783 11.8627 52.0461 12.6688 50.727 14.0246ZM24.4172 14.0246C23.098 12.6688 21.2659 11.8627 19.2505 11.8627C17.3068 11.8627 15.4428 12.6348 14.0684 14.0092C12.694 15.3836 11.9219 17.2476 11.9219 19.1913C11.9219 21.2067 12.728 23.0388 14.0838 24.358L19.4337 29.7445L29.8037 19.3745L24.4172 14.0246Z" fill="#3159A5"/>
</svg>
