<svg width="75" height="70" viewBox="0 0 75 70" fill="none" xmlns="http://www.w3.org/2000/svg">
<path d="M26.5791 37.0298V44.3585M15.5861 37.0298V48.0228M37.572 37.0298V48.0228M59.5579 37.0298V48.0228M48.565 37.0298V44.3585M4.5932 4.05103V18.7083M4.5932 11.3797H70.5508M70.5508 4.05103V18.7083M66.4285 37.0298C68.704 37.0298 70.5508 38.906 70.5508 41.2182V62.156C70.5508 64.4682 68.704 66.3444 66.4285 66.3444H8.25751C7.28568 66.3444 6.35364 65.9583 5.66645 65.2711C4.97926 64.5839 4.5932 63.6519 4.5932 62.68V41.2182C4.5932 38.906 6.44001 37.0298 8.71555 37.0298H66.4285Z" stroke="#3159A5" stroke-width="7.32861" stroke-linecap="round" stroke-linejoin="round"/>
</svg>
